<svg id="Logos" xmlns="http://www.w3.org/2000/svg" viewBox="0 0 306.25 72.35"><defs><style>.cls-1{fill:#ec228a;}</style></defs><title>ASAPP</title><line class="cls-1" x1="4.35" y1="67.42" x2="46.05" y2="17.49"/><path class="cls-1" d="M4.35,71.57a4.15,4.15,0,0,1-3.19-6.81l41.7-49.93a4.15,4.15,0,0,1,6.38,5.32L7.54,70.08A4.15,4.15,0,0,1,4.35,71.57Z"/><line class="cls-1" x1="27.09" y1="67.42" x2="80.06" y2="4.29"/><path class="cls-1" d="M27.09,71.57a4.15,4.15,0,0,1-3.18-6.82l53-63.13A4.15,4.15,0,0,1,83.24,7l-53,63.13A4.14,4.14,0,0,1,27.09,71.57Z"/><line class="cls-1" x1="49.78" y1="67.42" x2="73.64" y2="39.03"/><path class="cls-1" d="M49.78,71.57a4.15,4.15,0,0,1-3.18-6.82L70.46,36.36a4.15,4.15,0,1,1,6.36,5.34L53,70.09A4.12,4.12,0,0,1,49.78,71.57Z"/><path d="M120.78,36.13v6a1.07,1.07,0,0,1-1.21,1.21h-6.48a.37.37,0,0,0-.42.42V70.36a1.07,1.07,0,0,1-1.22,1.21h-7.61a1.07,1.07,0,0,1-1.21-1.21V43.81a.37.37,0,0,0-.43-.42H98.43a1.07,1.07,0,0,1-1.21-1.21v-6a1.07,1.07,0,0,1,1.21-1.21h3.77a.38.38,0,0,0,.43-.43V33A14.43,14.43,0,0,1,104,26.13a7.52,7.52,0,0,1,4.38-3.49,24.86,24.86,0,0,1,8.36-.89h2.35A1.07,1.07,0,0,1,120.28,23V28a1.06,1.06,0,0,1-1.21,1.2h-2a5.07,5.07,0,0,0-3.45,1c-.64.64-1,1.81-1,3.52v.71a.37.37,0,0,0,.42.43h6.48A1.07,1.07,0,0,1,120.78,36.13Zm6,34.23V23A1.07,1.07,0,0,1,128,21.75h7.61A1.07,1.07,0,0,1,136.79,23v47.4a1.07,1.07,0,0,1-1.21,1.21H128A1.07,1.07,0,0,1,126.76,70.36Z"/><path d="M165.62,36a13.64,13.64,0,0,1,5.66,4.38,10.25,10.25,0,0,1,2,6.19V70.36a1.07,1.07,0,0,1-1.21,1.21h-7.62a1.07,1.07,0,0,1-1.21-1.21V68.65c0-.19,0-.29-.14-.32s-.21,0-.36.18q-3.27,3.63-9.75,3.63a13.62,13.62,0,0,1-8.82-2.7c-2.23-1.81-3.35-4.46-3.35-8A10.22,10.22,0,0,1,144.7,53q3.84-3,11-3h7.19a.37.37,0,0,0,.42-.42V48a4.66,4.66,0,0,0-1.46-3.66A6.09,6.09,0,0,0,157.58,43a7.73,7.73,0,0,0-3.52.71,3.75,3.75,0,0,0-1.89,2,1.34,1.34,0,0,1-1.42.92l-7.9-1a1.77,1.77,0,0,1-.89-.33.63.63,0,0,1-.25-.67,9.51,9.51,0,0,1,2.45-5.27,13.9,13.9,0,0,1,5.56-3.66,21.25,21.25,0,0,1,7.65-1.32A20.21,20.21,0,0,1,165.62,36Zm-4.48,27a5.07,5.07,0,0,0,2.13-4.2V56.34a.38.38,0,0,0-.42-.43h-5.06a9.2,9.2,0,0,0-5,1.21,3.87,3.87,0,0,0-1.85,3.42,3.63,3.63,0,0,0,1.39,3,5.67,5.67,0,0,0,3.66,1.11A8.32,8.32,0,0,0,161.14,63Z"/><path d="M227.75,37.77q3.13,3.34,3.13,9.39v23.2a1.07,1.07,0,0,1-1.21,1.21h-7.61a1.07,1.07,0,0,1-1.21-1.21v-21a6.77,6.77,0,0,0-1.5-4.63,5,5,0,0,0-4-1.71,5.26,5.26,0,0,0-4.06,1.71,6.5,6.5,0,0,0-1.56,4.55V70.36a1.07,1.07,0,0,1-1.21,1.21H201a1.07,1.07,0,0,1-1.21-1.21v-21a6.62,6.62,0,0,0-1.56-4.59A5.2,5.2,0,0,0,194.16,43a5.55,5.55,0,0,0-3.81,1.35,5.73,5.73,0,0,0-1.81,3.78v22.2a1.07,1.07,0,0,1-1.21,1.21h-7.62a1.07,1.07,0,0,1-1.21-1.21V36.2A1.07,1.07,0,0,1,179.71,35h7.62a1.07,1.07,0,0,1,1.21,1.21v2.28c0,.19.06.31.18.35s.22,0,.32-.21q2.91-4.2,9-4.2a12.63,12.63,0,0,1,6.2,1.46,9.86,9.86,0,0,1,4.05,4.23c.05.19.13.28.25.25a.47.47,0,0,0,.32-.25,11,11,0,0,1,4.27-4.27,12.38,12.38,0,0,1,6-1.42Q224.62,34.42,227.75,37.77Z"/><path d="M269.81,53.14a26.07,26.07,0,0,1-1.21,8.54,14.71,14.71,0,0,1-5.16,7.58,13.67,13.67,0,0,1-8.58,2.88,9.61,9.61,0,0,1-8.11-3.84c-.1-.15-.21-.2-.32-.18s-.18.13-.18.32v1.92A1.07,1.07,0,0,1,245,71.57h-7.62a1.07,1.07,0,0,1-1.21-1.21V23a1.07,1.07,0,0,1,1.21-1.21H245A1.07,1.07,0,0,1,246.25,23V37.62q0,.29.18.36c.11.05.22,0,.32-.14,1.89-2.33,4.6-3.49,8.11-3.49a13.62,13.62,0,0,1,8.43,2.7,14.9,14.9,0,0,1,5.16,7.26A25.1,25.1,0,0,1,269.81,53.14Zm-10.54.21a14.39,14.39,0,0,0-1.71-7.47,5.53,5.53,0,0,0-5-2.71A5.45,5.45,0,0,0,247.81,46a15,15,0,0,0-1.49,7.33,14.88,14.88,0,0,0,1.42,7,5.31,5.31,0,0,0,4.84,3.06,5.58,5.58,0,0,0,5.2-3.06A14.69,14.69,0,0,0,259.27,53.35Z"/><path d="M298.13,60.4a1.23,1.23,0,0,1,.93-.5,1.12,1.12,0,0,1,.78.35l4.06,3.92a1.23,1.23,0,0,1,.42.85,1.33,1.33,0,0,1-.28.86,16.33,16.33,0,0,1-6,4.59,19.1,19.1,0,0,1-8,1.67,17.17,17.17,0,0,1-10.86-3.34,16.37,16.37,0,0,1-5.8-9.19,25.36,25.36,0,0,1-.85-6.61,26.78,26.78,0,0,1,.78-7A15.23,15.23,0,0,1,279,37.55a16.67,16.67,0,0,1,10.21-3.2q7,0,11.07,4.13t5.3,11.6c.19,1.56.34,3.3.43,5.19a1.07,1.07,0,0,1-1.21,1.21H283a.38.38,0,0,0-.42.43,10.33,10.33,0,0,0,.49,2.21,5.85,5.85,0,0,0,2.81,3.38,10.32,10.32,0,0,0,5.09,1.17A9.31,9.31,0,0,0,298.13,60.4ZM285.29,44.13a5.49,5.49,0,0,0-2.1,3.1c-.24.9-.38,1.5-.43,1.78s.07.43.35.43h12.1c.24,0,.36-.1.36-.29a5.1,5.1,0,0,0-.29-1.63,6.68,6.68,0,0,0-10-3.39Z"/><path class="cls-1" d="M284.47,29.3a1,1,0,0,1,.21-.64l5.47-6.53a1.75,1.75,0,0,1,1.53-.81h6.08a1.19,1.19,0,0,1,.67.22.67.67,0,0,1,.28.57,1.13,1.13,0,0,1-.28.71L293,29.3a1.77,1.77,0,0,1-1.5.78h-6C284.82,30.08,284.47,29.82,284.47,29.3Z"/></svg>